<svg width="67" height="63" viewBox="0 0 67 63" fill="none" xmlns="http://www.w3.org/2000/svg">
<path d="M57.085 19.9068C54.2761 20.0395 51.8725 22.7087 52.0053 25.6433C52.138 28.3194 54.6744 30.8558 57.4833 30.7231C60.4249 30.5903 62.6888 28.0539 62.4233 24.9795C62.2906 22.0379 60.0197 19.767 57.085 19.9068Z" fill="#FFCE33"/>
<path d="M8.55572 26.5798C10.9593 26.7195 12.9647 28.9904 12.825 31.5268C12.825 33.7976 10.5611 35.796 8.2902 35.6632C5.74683 35.6632 3.88123 33.5321 4.01399 30.856C4.14675 28.4524 6.1521 26.5798 8.55572 26.5798Z" fill="#FFCE33"/>
<path d="M39.0132 6.41432C39.0132 9.75424 36.2043 12.4234 32.8644 12.4234C29.2589 12.4234 26.5828 9.62149 26.7225 6.01605C26.7225 2.54337 29.5245 0 33.0041 0C36.3371 0 39.0132 2.94165 39.0132 6.41432Z" fill="#FFCE33"/>
<path d="M24.8499 24.5815C24.3189 25.378 23.6481 26.0488 23.3826 26.8524C21.1117 31.3941 17.7718 34.8668 14.2991 38.3395C13.2301 39.2758 12.8248 40.3378 12.9645 41.6794C12.9645 47.6884 12.9645 53.6975 12.9645 59.7066C12.9645 61.0481 13.0973 62.3827 11.3574 62.3827C9.6246 62.3827 9.22634 61.3136 9.22634 59.8463C9.35909 56.7719 9.3591 53.8303 9.3591 50.8956C9.22634 50.0921 9.75735 48.7575 8.42278 48.7575C7.22097 48.7575 7.48651 50.0921 7.48651 50.7559C7.48651 53.6975 7.48651 56.5064 7.48651 59.441C7.48651 60.7756 7.75902 62.3827 5.61392 62.3827C3.74832 62.3827 3.88105 60.7756 3.88105 59.5738C3.88105 53.97 4.01381 48.6247 3.88105 43.1467C3.88105 42.2104 4.27935 41.2741 2.81202 39.8068C2.81202 42.3501 2.81202 44.2158 2.81202 46.0883C2.81202 47.2902 3.07754 48.492 1.33771 48.492C-0.129619 48.492 0.00311541 47.2902 0.00311541 46.2211C0.00311541 44.083 0.00311541 42.0776 0.00311541 39.8068C0.00311541 37.5359 1.0722 36.2013 3.61557 36.3341C5.61393 36.4669 7.48651 36.3341 9.49186 36.3341C12.9645 36.3341 14.2991 35.1323 15.8992 32.0649C18.8408 26.1816 22.1808 20.438 26.1845 15.3653C27.3863 13.7582 28.8606 12.6961 30.859 14.5617C32.0608 15.6308 33.8006 15.498 35.0024 14.429C36.6025 12.9617 37.6785 13.6254 39.0131 14.8272C40.746 16.4343 41.822 18.4327 43.0168 20.438C44.8894 23.5124 48.5016 26.4256 50.5 29.5C50.6611 29.7478 51.0329 30.1923 51.1656 30.325C52.2277 31.1286 53.702 31.5269 55.7073 31.5269C57.9712 31.5269 60.3819 31.6596 62.6458 31.5269C65.5874 31.5269 66.922 32.9942 66.922 35.6633C66.922 38.2067 66.922 40.7431 66.922 43.2795C66.922 44.4813 67.0547 45.9556 65.3219 45.9556C63.3165 45.9556 63.582 44.4813 63.582 43.1467C63.582 40.8758 63.582 38.605 63.582 35.6633C61.8492 37.4032 62.2475 38.4722 62.2475 39.5413C62.2475 46.0883 62.2475 52.4957 62.2475 59.0428C62.2475 60.5101 62.513 62.3827 60.2491 62.3827C57.8385 62.3827 57.9713 60.5101 57.9713 58.7773C57.9713 55.4373 57.9713 52.0974 57.9713 48.6247C57.9713 47.8212 58.3765 46.2211 57.0419 46.2211C55.3021 46.2211 55.9729 47.8212 55.9729 48.7575C55.8401 52.3629 55.9729 55.8356 55.9729 59.3083C55.9729 61.0481 55.4349 62.5154 53.5623 62.3827C51.4312 62.3827 51.5639 60.6429 51.5639 59.3083C51.5639 52.0974 51.5639 45.0193 51.5639 37.8014C51.6967 33.7977 49.5 34.5 47.4204 31.9251C45.6403 29.721 42.0875 26.5799 40.3477 24.5815C41.5495 28.5852 42.7513 32.5959 43.9531 36.4669C44.8894 40.0723 44.4841 40.7431 40.746 40.7431C38.7476 40.6103 38.4751 41.4139 38.4751 43.1467C38.4751 48.2265 38.4751 53.2992 38.4751 58.372C38.4751 60.2446 38.4751 62.3827 36.0715 62.3827C33.8006 62.3827 33.9334 60.2446 33.9334 58.5117C33.9334 53.5647 33.9334 48.492 33.9334 43.545C33.9334 42.6157 34.6042 40.8758 32.8643 40.8758C30.9917 40.8758 31.7952 42.6157 31.7952 43.4122C31.7952 48.6247 31.7952 53.6975 31.7952 59.0428C31.7952 60.5101 31.5297 61.9774 29.9297 62.2499C27.7915 62.6482 27.2605 61.0481 27.2605 59.3083C27.2605 54.1028 27.1208 48.7575 27.2605 43.545C27.2605 41.4139 26.7225 40.6103 24.4516 40.7431C21.3772 40.8758 20.8462 39.9395 21.6427 37.0049C22.8515 32.9942 24.0533 28.9905 25.2482 24.847C25.1154 24.7143 24.9826 24.7143 24.8499 24.5815Z" fill="#3B4EFF"/>
</svg>
